<svg width="208" height="29" viewBox="0 0 208 29" fill="none" xmlns="http://www.w3.org/2000/svg">
<path fill-rule="evenodd" clip-rule="evenodd" d="M152.5 8.5C152.972 8.94186 153.233 9.37738 153.5 10C153.767 10.6226 154 11.3171 154 12V17H143V12C143 11.297 143.233 10.6226 143.5 10C143.767 9.39746 144.028 8.96194 144.5 8.5C144.952 8.03806 145.864 7.44914 146.5 7.18804C147.136 6.92694 147.781 6.8 148.5 6.8C149.219 6.8 149.864 6.92694 150.5 7.18804C151.116 7.44914 152.028 8.03806 152.5 8.5ZM177.307 8.24212C177.779 8.68398 178.149 9.22626 178.416 9.84888C178.683 10.4715 178.826 11.1343 178.826 11.8372C178.826 12.5402 178.683 13.1829 178.416 13.8055C178.149 14.4081 177.779 14.9503 177.307 15.4123C176.835 15.8742 176.301 16.2358 175.665 16.4968C175.028 16.7579 174.372 16.8985 173.653 16.8985H168.479V6.75587H173.653C174.372 6.75587 175.028 6.89646 175.665 7.15756C176.301 7.41865 176.835 7.78017 177.307 8.24212ZM114.002 13.9766C114.002 6.30432 120.366 0 128.209 0H207.002V28.9998H128.18C120.346 28.9998 114.002 22.7937 114.002 15.1214V13.9766ZM129 7H134V2H129C121.876 2 116 7.51059 116 14.5C116 21.4894 121.876 27 129 27H134V22H129C124.791 21.6987 121 18.6977 121 14.5C121 10.3023 124.791 7.30127 129 7ZM182.707 16.7178C183.138 15.9747 183.446 15.1914 183.672 14.3679C183.897 13.5444 184 12.7009 184 11.8372C184 10.8933 183.877 10.0096 183.63 9.14592C183.384 8.30237 183.035 7.49899 182.583 6.73578C182.132 5.99265 181.598 5.30978 180.962 4.68716C180.325 4.06455 179.627 3.54235 178.868 3.10049C178.108 2.65863 177.287 2.31719 176.404 2.07618C175.521 1.83517 174.597 1.71466 173.653 1.71466H163V27.0211L168 27V22H174L176 27L182.05 27.0211L179.175 20.3932C179.915 19.9313 180.592 19.389 181.187 18.7664C181.783 18.1438 182.275 17.4609 182.707 16.7178ZM187 27.0211H205V22H187V27.0211ZM187 17.0211H205V12L187 12V17.0211ZM187 7H205V2H187V7ZM154 27H159V12.5C159 11.1142 158.534 9.22515 158 8C157.466 6.77485 156.924 5.92389 156 5C155.076 4.07611 153.752 3.0222 152.5 2.5C151.248 1.95772 149.917 1.8 148.5 1.8C147.083 1.8 145.752 1.9778 144.5 2.5C143.248 3.0222 141.924 4.07611 141 5C140.056 5.9038 139.534 6.77485 139 8C138.446 9.22515 138 11.0941 138 12.5V27H143V22H154V27Z" fill="#FFA300"/>
<path d="M41.0009 0V8.55659C41.0009 9.33816 40.6131 10.2859 40.3172 10.9756C40.0425 11.6882 39.6621 12.2858 39.176 12.8145C38.69 13.3433 38.1405 13.757 37.4854 14.0559C36.8303 14.3547 36.154 14.5156 35.4355 14.5156C34.717 14.5156 34.0196 14.3777 33.3645 14.0559C32.7093 13.757 32.1599 13.3433 31.6738 12.8145C31.1878 12.2858 30.8074 11.6882 30.5326 10.9756C30.2579 10.2629 30.0009 9.54439 30.0009 8.76283V0H25.002V8.74491C25.002 10.0782 24.9958 11.3433 25.3973 12.5387C25.7777 13.734 26.3272 14.8374 27.0246 15.8259C27.722 16.8143 28.5673 17.6649 29.5394 18.3775C30.5115 19.0901 31.8166 19.6437 33 19.9655V29H38V19.9655C39.1623 19.6437 40.2961 19.0671 41.2682 18.3545C42.2403 17.6419 43.0856 16.7914 43.783 15.8029C44.4804 14.8144 45.0299 13.734 45.4103 12.5157C45.7907 11.3204 46.002 10.0561 46.002 8.7228V0H41.0009Z" fill="#333333"/>
<path d="M48.002 0V6.12438H55.9032V28.9982H61.1427V6.12438H69.002V0H48.002Z" fill="#333333"/>
<path d="M111.394 16.9606C110.975 15.8997 110.43 14.9772 109.718 14.193C109.005 13.4088 108.167 12.7861 107.203 12.3479C106.238 11.8867 105.212 11.6791 104.143 11.6791H98.8822C98.5259 11.6791 98.1696 11.6099 97.8552 11.4484C97.5409 11.3101 97.2684 11.1025 97.0169 10.8257C96.7864 10.572 96.5978 10.2491 96.4511 9.9032C96.3043 9.55724 96.2415 9.16516 96.2415 8.77308C96.2415 8.381 96.3043 7.98892 96.4511 7.64296C96.5768 7.29701 96.7654 6.99718 97.0169 6.72042C97.2475 6.46672 97.5 6 98 6C98.5 6 98.6228 6 99 6H111V0H99C97.9102 0 96.7654 0.30876 95.8223 0.770031C94.8792 1.2313 94.0409 1.85402 93.3283 2.63818C92.6157 3.42234 92.0499 4.34488 91.6307 5.38274C91.2115 6.44366 91.002 7.55071 91.002 8.75002C91.002 9.94932 91.2115 11.0794 91.6307 12.1173C92.0499 13.1782 92.6157 14.1008 93.3283 14.8849C94.0409 15.6691 94.8792 16.2918 95.8223 16.7531C96.7654 17.2143 97.7924 17.445 98.8822 17.445H104.143C104.52 17.445 104.855 17.5142 105.17 17.6756C105.484 17.814 105.756 18.0216 106.008 18.2983C106.238 18.552 106.427 18.8749 106.574 19.2209C106.7 19.5668 106.783 19.9589 106.783 20.351C106.783 20.7431 106.721 21.1351 106.574 21.4811C106.427 21.827 106.259 22.1269 106.008 22.4036C105.777 22.6573 105.502 23.016 105.002 23.016C104.334 23.0057 104.377 23.016 104 23.016L91.002 23V28.9998H104C105.09 28.9998 106.259 28.7692 107.203 28.3079C108.167 27.8466 109.005 27.2239 109.718 26.4398C110.43 25.6556 110.996 24.733 111.394 23.6952C111.813 22.6573 112.002 21.5272 112.002 20.3279C112.002 19.1286 111.792 17.9985 111.394 16.9606Z" fill="#333333"/>
<path d="M89.002 0H71.002V6H89.002V0Z" fill="#333333"/>
<path d="M89.002 12H71.002V18H89.002V12Z" fill="#333333"/>
<path d="M89.002 23H71.002V29H89.002V23Z" fill="#333333"/>
<path d="M23 19.0012C23 29.7618 15 28.9878 15 28.9878H0V23.9638L14 23.939C14 23.939 18 24.476 18 19.0012C18 17.4044 17 15.0107 15 15.0107C12.5 15.0107 9.43491 15.0107 9 15.0107C9 9.07966 10 4.58929 5 5.08711V16.988L0 16.9987V0.0530168C11 -0.444801 14 2.53917 14 10.0216C14.5 10.0219 23 10.0216 23 19.0012Z" fill="#333333"/>
</svg>
